HIERARCHY
ROOT Hips
{
	OFFSET -3.958830 18.904000 13.208200
	CHANNELS 6 Xposition Yposition Zposition Zrotation Yrotation Xrotation 
	JOINT LHipJoint
	{
		OFFSET 0.000000 0.000000 0.000000
		CHANNELS 3 Zrotation Yrotation Xrotation
		JOINT LeftUpLeg
		{
			OFFSET 1.800000 -1.400000 0.085000
			CHANNELS 3 Zrotation Yrotation Xrotation
			JOINT LeftLeg
			{
				OFFSET 2.215000 -6.000000 0.000000
				CHANNELS 3 Zrotation Yrotation Xrotation
				JOINT LeftFoot
				{
					OFFSET 2.500000 -6.900000 0.000000
					CHANNELS 3 Zrotation Yrotation Xrotation
					JOINT LeftToeBase
					{
						OFFSET 0.200000 -0.500000 1.950000
						CHANNELS 3 Zrotation Yrotation Xrotation
						End Site
						{
							OFFSET 0.000000 0.000000 0.000000
						}
					}
				}
			}
		}
	}
	JOINT RHipJoint
	{
		OFFSET 0.000000 0.000000 0.000000
		CHANNELS 3 Zrotation Yrotation Xrotation
		JOINT RightUpLeg
		{
			OFFSET -1.800000 -1.400000 0.085000
			CHANNELS 3 Zrotation Yrotation Xrotation
			JOINT RightLeg
			{
				OFFSET -2.215000 -6.000000 0.000000
				CHANNELS 3 Zrotation Yrotation Xrotation
				JOINT RightFoot
				{
					OFFSET -2.500000 -6.900000 0.000000
					CHANNELS 3 Zrotation Yrotation Xrotation
					JOINT RightToeBase
					{
						OFFSET -0.200000 -0.500000 1.950000
						CHANNELS 3 Zrotation Yrotation Xrotation
						End Site
						{
							OFFSET 0.000000 0.000000 0.000000
						}
					}
				}
			}
		}
	}
	JOINT LowerBack
	{
		OFFSET 0.000000 0.000000 0.000000
		CHANNELS 3 Zrotation Yrotation Xrotation
		JOINT Spine
		{
			OFFSET -0.087000 1.940000 -0.288900
			CHANNELS 3 Zrotation Yrotation Xrotation
			JOINT Spine1
			{
				OFFSET 0.000000 1.950000 0.060000
				CHANNELS 3 Zrotation Yrotation Xrotation
				JOINT Neck
				{
					OFFSET 0.000000 0.000000 0.000000
					CHANNELS 3 Zrotation Yrotation Xrotation
					JOINT Neck1
					{
						OFFSET 0.000000 1.600000 0.340000
						CHANNELS 3 Zrotation Yrotation Xrotation
						JOINT Head
						{
							OFFSET 0.000000 1.667000 -0.240000
							CHANNELS 3 Zrotation Yrotation Xrotation
							End Site
							{
								OFFSET 0.000000 0.000000 0.000000
							}
						}
					}
				}
				JOINT LeftShoulder
				{
					OFFSET 0.000000 0.000000 0.000000
					CHANNELS 3 Zrotation Yrotation Xrotation
					JOINT LeftArm
					{
						OFFSET 2.700000 1.550000 -0.730000
						CHANNELS 3 Zrotation Yrotation Xrotation
						JOINT LeftForeArm
						{
							OFFSET 5.450000 0.000000 0.000000
							CHANNELS 3 Zrotation Yrotation Xrotation
							JOINT LeftHand
							{
								OFFSET 3.450000 0.000000 0.000000
								CHANNELS 3 Zrotation Yrotation Xrotation
								JOINT LeftHandIndex1
								{
									OFFSET 0.750000 0.000000 0.000000
									CHANNELS 3 Zrotation Yrotation Xrotation
									End Site
									{
										OFFSET 0.000000 0.000000 0.000000
									}
								}
							}
						}
					}
				}
				JOINT RightShoulder
				{
					OFFSET 0.000000 0.000000 0.000000
					CHANNELS 3 Zrotation Yrotation Xrotation
					JOINT RightArm
					{
						OFFSET -2.700000 1.550000 -0.730000
						CHANNELS 3 Zrotation Yrotation Xrotation
						JOINT RightForeArm
						{
							OFFSET -5.450000 0.000000 0.000000
							CHANNELS 3 Zrotation Yrotation Xrotation
							JOINT RightHand
							{
								OFFSET -3.450000 0.000000 0.000000
								CHANNELS 3 Zrotation Yrotation Xrotation
								JOINT RightHandIndex1
								{
									OFFSET -0.750000 0.000000 0.000000
									CHANNELS 3 Zrotation Yrotation Xrotation
									End Site
									{
										OFFSET 0.000000 0.000000 0.000000
									}
								}
							}
						}
					}
				}
			}
		}
	}
}
MOTION
Frames: 9
Frame Time: 0.016667
-0.663490 12.548130 -2.478050 21.487945 33.463917 6.930296 -16.313648 7.281136 9.118464 62.861768 11.629265 -64.662199 -90.732105 73.151879 34.301798 2.100512 11.062084 0.857986 0.326030 0.272150 0.343900 18.574161 -5.984584 3.127962 -1.536473 12.834210 -43.802682 -43.360415 23.093901 130.542189 -4.724518 -20.359894 -1.306878 0.099610 -0.139700 0.165610 -1.796059 -2.256486 -11.628246 -20.493024 6.136140 26.819341 13.704940 1.214958 -0.989878 -4.455325 -5.306133 -20.561582 -18.429450 13.598406 56.971230 1.053010 13.439560 -7.255500 -34.315844 -29.068498 4.354897 -27.383446 -20.506632 2.075431 0.540856 1.635720 -0.637932 -3.884375 2.586546 0.521890 -0.165380 0.384410 0.052580 47.520177 29.407570 12.071153 39.021642 -9.002017 -3.088012 -6.737051 -4.258332 1.009738 2.813048 -1.005628 -0.028210 0.094230 -0.091600 -0.132620 
-0.663400 12.552590 -2.476870 21.511216 33.636732 6.892152 -16.309505 7.271481 9.139337 62.672619 11.390278 -64.801514 -90.041167 73.164734 34.921058 2.116302 11.123745 0.840926 0.327710 0.273460 0.346010 18.574617 -6.002602 3.113677 -1.657978 12.745961 -43.748591 -43.321520 22.998000 130.422136 -4.719615 -20.336270 -1.303091 0.099850 -0.142100 0.165120 -1.802996 -2.236254 -11.634092 -20.399441 6.193544 26.942718 13.622441 1.264540 -0.954462 -4.414566 -5.252694 -20.674209 -18.316725 13.467488 57.206772 1.091120 13.357810 -7.159910 -34.417949 -29.285039 4.383538 -27.212878 -20.586236 2.069489 0.463869 1.668475 -0.638880 -3.886036 2.580648 0.522450 -0.166670 0.385790 0.052710 47.539759 29.579450 12.121432 39.118435 -8.947979 -3.121170 -6.938822 -4.301869 1.026295 2.816673 -1.011364 -0.027280 0.093100 -0.093560 -0.133040 
-0.660240 12.557820 -2.476540 21.535794 33.871398 6.918296 -16.302449 7.245097 9.172252 62.316392 11.006600 -65.065624 -88.817670 73.327887 36.071121 2.141365 11.220992 0.815597 0.326240 0.273980 0.344210 18.576495 -6.019358 3.103564 -1.856414 12.677651 -43.722684 -43.212524 22.759543 130.450577 -4.703888 -20.263006 -1.289070 0.099770 -0.141290 0.162090 -1.814930 -2.198020 -11.651811 -20.175309 6.239390 27.040379 13.455199 1.364114 -0.895161 -4.344850 -5.211205 -20.885450 -18.204430 13.311443 57.519601 1.180970 13.232620 -7.035120 -34.625716 -29.641087 4.446692 -27.100395 -20.712746 2.048044 0.544091 1.760378 -0.639977 -3.891831 2.569150 0.522650 -0.167000 0.386320 0.053040 47.620390 29.901538 12.180910 39.314470 -8.723979 -3.182056 -7.632539 -4.823024 1.110407 2.836388 -1.018203 -0.028130 0.096590 -0.093470 -0.132020 
-0.652510 12.559460 -2.475750 21.520273 34.121892 6.929915 -16.297330 7.210161 9.227809 61.862706 10.492794 -65.408642 -86.759078 73.607974 37.996738 2.176530 11.380980 0.770777 0.329380 0.276270 0.349600 18.576421 -6.033031 3.085069 -2.108766 12.602142 -43.588944 -43.071454 22.512212 130.528203 -4.687805 -20.179208 -1.275424 0.101320 -0.146720 0.160080 -1.820114 -2.167842 -11.674343 -19.821692 6.271318 27.078039 13.213335 1.503054 -0.736322 -4.241742 -5.171110 -21.143148 -18.114761 13.142558 57.878619 1.156660 13.108570 -7.045880 -34.686316 -30.087241 4.538008 -27.157655 -20.885042 2.052376 0.563873 1.820029 -0.643021 -3.892345 2.560172 0.527800 -0.170780 0.390160 0.051400 47.476494 30.377439 12.245803 39.678611 -8.172403 -3.248739 -8.310918 -5.795213 1.234465 2.866211 -1.022243 -0.028860 0.098260 -0.094880 -0.134970 
-0.645830 12.560880 -2.475530 21.552951 34.583982 7.035031 -16.293635 7.163360 9.283885 61.470429 10.121184 -65.965769 -85.225745 73.814604 39.475895 2.211007 11.527154 0.730798 0.331850 0.277810 0.354010 18.576838 -6.040472 3.070121 -2.570748 12.516918 -43.534990 -42.854780 22.018241 130.875694 -4.653468 -20.016369 -1.248230 0.102340 -0.150570 0.158920 -1.820878 -2.131314 -11.707168 -19.450732 6.328725 27.108961 12.993711 1.646973 -0.447046 -4.144862 -5.105379 -21.486037 -17.874255 12.821289 58.291100 1.153360 12.908790 -6.949230 -34.732269 -30.697476 4.658520 -27.190197 -21.152120 2.067786 0.494222 1.761614 -0.642810 -3.893544 2.552056 0.530000 -0.172560 0.392250 0.049950 47.331104 30.990508 12.346415 39.825556 -7.478718 -3.263104 -8.829459 -6.904374 1.358388 2.899603 -1.023293 -0.028560 0.098640 -0.096170 -0.136920 
-0.641380 12.562230 -2.477240 21.622574 35.059683 7.154462 -16.289803 7.119135 9.329968 61.091238 9.836437 -66.537450 -84.093626 73.968359 40.616599 2.236401 11.651223 0.695476 0.335690 0.280350 0.359790 18.578834 -6.037903 3.064087 -3.000209 12.486387 -43.528119 -42.611727 21.477300 131.259224 -4.617714 -19.843200 -1.220615 0.104890 -0.156320 0.158430 -1.823764 -2.102505 -11.740280 -19.119435 6.337367 27.201700 12.776652 1.733295 -0.205068 -4.054005 -5.082170 -21.776966 -17.737417 12.534440 58.612140 1.021320 12.705690 -7.006750 -34.728096 -31.184715 4.748935 -27.211514 -21.391250 2.065424 0.507024 1.596456 -0.644801 -3.891425 2.545697 0.534960 -0.175680 0.395820 0.047910 47.139381 31.518524 12.450640 39.965935 -6.539919 -3.333831 -9.528216 -7.815043 1.479190 2.930025 -1.032863 -0.029080 0.099630 -0.096860 -0.140120 
-0.638890 12.562230 -2.477480 21.709557 35.519474 7.291298 -16.284160 7.066178 9.366373 60.803740 9.647441 -67.049687 -83.132204 74.180666 41.608132 2.253727 11.748116 0.665338 0.344250 0.288190 0.368690 18.583215 -6.029804 3.070082 -3.474973 12.510779 -43.564640 -42.252258 20.710612 131.890817 -4.570007 -19.598371 -1.181323 0.110200 -0.164310 0.159430 -1.830331 -2.051106 -11.777976 -18.886571 6.393379 27.253412 12.611555 1.829582 0.129310 -3.987023 -5.038163 -22.188115 -17.458532 12.238850 59.112020 1.024500 12.548560 -7.160040 -34.627973 -31.816297 4.880776 -27.218547 -21.645169 2.091001 0.496723 1.519010 -0.649416 -3.889461 2.538449 0.543240 -0.181180 0.403200 0.046570 46.902487 32.169855 12.548961 39.948562 -5.290016 -3.332737 -9.939655 -9.044510 1.613711 2.967316 -1.031921 -0.028350 0.100920 -0.098940 -0.143890 
-0.637210 12.559640 -2.477550 21.811661 35.985085 7.504581 -16.282001 7.002129 9.404610 60.680672 9.576108 -67.546608 -82.058138 74.533033 42.723938 2.268796 11.830917 0.637669 0.350870 0.294090 0.380850 18.587185 -6.005162 3.086237 -3.954644 12.595297 -43.662423 -41.864350 19.910169 132.665660 -4.519072 -19.341778 -1.140411 0.113410 -0.174700 0.161970 -1.826386 -1.989922 -11.824174 -18.733108 6.524930 27.143793 12.362620 2.005950 0.630134 -3.903761 -4.748924 -22.598947 -16.520231 11.695939 59.824203 1.003530 12.590570 -7.267690 -34.318168 -32.647656 5.080772 -27.282719 -22.062009 2.160942 0.528972 1.583973 -0.652430 -3.894749 2.531177 0.550730 -0.184660 0.411440 0.041700 46.358742 32.943909 12.615703 40.231485 -3.815299 -3.392288 -10.234068 -10.141078 1.730079 3.000102 -1.036005 -0.026900 0.097880 -0.101080 -0.150440 
-0.635430 12.561890 -2.479730 22.024173 36.650148 7.721771 -16.278582 6.943481 9.456450 60.533391 9.333901 -68.158417 -80.791826 74.936627 44.107649 2.298778 11.962522 0.598744 0.354290 0.296620 0.390090 18.590014 -5.997835 3.085044 -4.586680 12.578046 -43.716981 -41.630995 19.394140 133.057629 -4.488089 -19.180333 -1.114563 0.114310 -0.183600 0.164180 -1.829261 -1.938910 -11.870678 -18.654241 6.506182 27.202227 12.144509 1.945266 1.115118 -3.805986 -4.512106 -23.182623 -15.684952 11.309039 60.614746 0.918020 12.753520 -7.242340 -34.187571 -33.496871 5.371780 -27.144240 -22.242115 2.149067 0.643518 1.613640 -0.654730 -3.900279 2.520895 0.557660 -0.186820 0.418670 0.037250 45.960030 33.694905 12.734184 40.124933 -2.233157 -3.343120 -10.290271 -10.655392 1.756277 3.020047 -1.037464 -0.026260 0.094590 -0.102060 -0.156650 
